<svg width="80" height="64" fill="none" xmlns="http://www.w3.org/2000/svg"><path d="M22.051 36.571c4.103 0 7.35 1.284 9.744 3.85 2.564 2.406 3.846 5.614 3.846 9.624 0 4.33-1.538 7.78-4.615 10.346C28.12 62.797 24.103 64 18.974 64c-5.982 0-10.683-2.165-14.102-6.496C1.624 53.173 0 46.998 0 38.977c0-7.218 1.71-13.874 5.128-19.97C8.547 12.753 13.675 6.498 20.513.242c.17-.16.427-.241.769-.241.513 0 .94.24 1.282.722.342.481.342.882 0 1.203C14.188 9.945 10 19.408 10 30.315c0 4.492.855 7.78 2.564 9.866 1.539-2.407 4.701-3.61 9.487-3.61zm44.36 0c4.102 0 7.35 1.284 9.743 3.85C78.718 42.827 80 46.035 80 50.045c0 4.33-1.538 7.78-4.615 10.346C72.479 62.797 68.462 64 63.333 64c-5.983 0-10.683-2.165-14.102-6.496-3.248-4.331-4.872-10.506-4.872-18.527 0-7.218 1.71-13.874 5.128-19.97 3.419-6.255 8.547-12.51 15.385-18.766.17-.16.427-.241.769-.241.513 0 .94.24 1.282.722.342.481.342.882 0 1.203-8.376 8.02-12.564 17.483-12.564 28.39 0 4.492.855 7.78 2.564 9.866 1.539-2.407 4.701-3.61 9.487-3.61z" fill="#fff"/></svg>