<svg width="40" height="40" fill="none" xmlns="http://www.w3.org/2000/svg"><g clip-path="url(#clip0_1_23)"><path d="M39.19 34.598h-4.235c2.811-3.73 4.36-8.392 4.36-13.13C39.315 9.995 30.65.66 19.999.66S.683 9.996.683 21.468c0 4.738 1.547 9.401 4.358 13.13H.81a.81.81 0 00-.81.81v3.122c0 .447.363.81.81.81h11.556a.81.81 0 00.81-.81v-3.478a.807.807 0 00-.193-.525l-.045-.053a.782.782 0 00-.156-.14c-3.977-2.757-6.448-7.687-6.448-12.867 0-8.357 6.13-15.155 13.665-15.155 7.534 0 13.665 6.799 13.665 15.155 0 5.202-2.487 10.142-6.489 12.893a.809.809 0 00-.35.666v3.503c0 .447.362.81.81.81H39.19a.81.81 0 00.81-.81v-3.122a.809.809 0 00-.81-.81z" fill="#fff"/></g><defs><clipPath id="clip0_1_23"><path fill="#fff" d="M0 0h40v40H0z"/></clipPath></defs></svg>